<svg xmlns="http://www.w3.org/2000/svg" viewBox="0 0 24 24"><circle fill="#6C4D3B" cx="12" cy="12" r="12"/><path fill="#FFF" d="m10.115 10.982c.228-.376.647-.484.646-.484-.178.778-.832.889-.832.889s0-.095.187-.406zm8.935-5.729-5.795 5.341 5.796 7.963H16.086l-2.682-3.706s.481 1.558.562 2.305c.101.924-.017 1.671-.31 2.417.49-3.284-2.302-5.507-2.251-6.802.064-1.601 1.209-2.718 2.052-3.398 0 0-.529-.513-1.353-.163-.825.352-1.137.773-1.137.773s-.542-.033-1.113.364c-.57.394-1.465 1.928-2.138 2.848-.635.87-.969.592-1.006.56.023.081.316.974 1.492.137 0 0 .361.48-.302 1.114 0 0 .932-.049.977-.942 0 0 .209.339.261 1.642.022.57-.095 1.406-.33 1.827l-.008.012c-.355.629-1.032 1.013-1.755 1.013H5.749V5.253h2.375l.005 4.655 1.313-.003a2.49 2.49 0 001.667-.647l4.408-4.005z"/></svg>