<?xml version="1.0" encoding="utf-8"?>
<!-- Generator: Adobe Illustrator 27.3.1, SVG Export Plug-In . SVG Version: 6.00 Build 0)  -->
<svg version="1.1" id="Слой_2" xmlns="http://www.w3.org/2000/svg" xmlns:xlink="http://www.w3.org/1999/xlink" x="0px" y="0px"
	 viewBox="0 0 511.3 559.9" style="enable-background:new 0 0 511.3 559.9;" xml:space="preserve">
<style type="text/css">
	.st0{fill:#FFFFFF;}
	.st1{fill:none;stroke:#000000;stroke-miterlimit:10;}
</style>
<g id="XMLID_00000048470252095757900030000001010302589660596880_">
	<g>
		<path class="st0" d="M248,487.9c16.5,0.2,33,0.3,49.4,0.5c-24.4-27.7-48.8-55.4-73.2-83.2h-24.7
			C215.7,432.8,231.8,460.3,248,487.9z M508.6,286.3c2.5,7.6,2.7,9.3,2.7,26.1c0,20.2-1.7,32.2-6.5,46.7
			c-9.7,29.4-32.1,55.5-59.7,69.7c-11.6,5.9-22.4,9.6-32.9,11.1c-4.3,0.6-9.2,1.3-10.8,1.6c-2.7,0.4-3.7,1.6-8.5,10.5
			c-3,5.5-9.1,14.8-13.4,20.7c-9.5,12.9-29.1,32.5-40.4,40.6c-9.7,6.9-25.5,15.8-32.4,18.3c-2.6,0.9-4.8,2-4.8,2.3
			c0,0.3,13.8,0.5,30.8,0.5c29.1,0,30.9,0.1,34.2,2c9.9,5.8,8.3,19.4-2.6,22.4c-2.7,0.8-48.5,1.1-148.9,1.1
			c-140.3,0-145.1-0.1-149.2-1.9c-9.6-4.4-9.8-16.7-0.3-21.6c2.4-1.2,8.5-1.5,34-1.5c17,0,31-0.3,31-0.8c0-0.4-3-1.8-6.7-3.2
			c-21.7-8.1-48.1-27.8-65.6-48.8c-18.7-22.4-32.8-51.4-38.1-77.7c-3.2-16.2-3.6-27.6-3.6-124.5v-97.5l-8.5-25.5
			c-9.2-27.7-10-32.1-6.3-36.5c1-1.1,8.5-4.1,34.4-13c25.9-8.9,70-23.7,143.9-48.5C277.2,26.6,357.9,0,359.7,0
			c4.4-0.1,8.8,2.3,10.5,5.7c0.8,1.5,6,16.4,11.7,33.1c9.5,28.2,10.2,30.6,9.1,34c-0.6,2.1-2.1,4.7-3.3,5.8
			c-1.3,1.3-11.5,5.3-24.3,9.6c-88,29.6-269.4,91-271,91.7c-1.1,0.4,68.9,0.5,155.5,0.2c145-0.5,157.8-0.4,160.7,1.1
			c1.7,0.9,3.5,2.3,4,2.9c0.4,0.7,1,14.6,1.3,30.8l0.5,29.5l23,0.6c13.6,0.3,25,1.1,28,1.8c7.7,2,20.5,8.5,25.8,13.2
			C498.4,266.2,505.5,277,508.6,286.3z M472.8,347.4c4.8-15.5,6.5-38.4,3.5-48.4c-1.5-5-4.3-9.1-8.5-12.1c-4.2-3-9.7-5-16.6-6
			c-7.7-1.1-35.6-1.4-36.6-0.3c-0.4,0.3-0.7,23.4-0.7,51.2c-0.1,46.1-0.4,55.4-2.6,69l-0.7,4.4l4.4-0.7
			C438.7,400.7,464.1,375.7,472.8,347.4z M379.7,199.1l2.4-3.2h-25.5c-25.1,0-25.6,0-28.1,2.2c-2.8,2.5-37.6,47.8-37.6,49
			c0,0.5,11.6,0.8,25.8,0.8h25.9l6.3-8.3C354.8,232,374.1,206.7,379.7,199.1z M341.3,78.8c18.3-5.9,21.6-7.3,20.5-8.4
			c-0.8-0.8-12.9-9.5-26.9-19.4c-14-10-26.1-18.1-27-18c-1.9,0.1-42,13.5-43.9,14.6c-1,0.6,4.8,5.2,20.5,16.4
			c29.3,20.8,31,21.9,33.2,21.9C318.7,85.9,329.4,82.7,341.3,78.8z M223.7,389.8L290.9,280h-41.1l-49.5,109.3L223.7,389.8z
			 M239.6,223c10.6-14,19.3-25.8,19.3-26.2c0-0.9-39.9-1-48.7-0.2c-4.2,0.4-4.6,0.8-14.1,13.1c-16.2,21-28.4,37.3-28,37.7
			c0.1,0.2,12,0.5,26.3,0.6l25.9,0.4L239.6,223z M250.1,110c0.4-0.3-11.3-9.1-25.9-19.5c-14.6-10.4-27.5-19.1-28.7-19.2
			c-2.7-0.4-46.8,14.5-46.4,15.6c0.3,0.8,39,28.8,49.3,35.6l5,3.4l23-7.6C239.1,114.1,249.7,110.4,250.1,110z M192,486.4V280h-48.2
			v206.5H192z M90.7,163.9c3.1,0,47.2-15.2,46.7-16c-0.4-0.7-36.6-26.7-51.2-36.8c-1.7-1.2-3.5-2.2-4-2.1
			c-1.8,0.2-44.7,14.9-45.5,15.7C35.6,125.8,87.9,163.9,90.7,163.9z M136.9,196.7c0-0.8-1.6-0.8-33.7,0.2
			c-16.5,0.4-18.4,0.7-20.2,2.5c-3.3,3.4-36.1,46.7-36.1,47.6c0,0.5,11.3,0.9,25.4,0.9h25.4l9.9-12.8
			C132.6,203,136.9,197.4,136.9,196.7z"/>
	</g>
	<g>
		<path class="st1" d="M508.6,286.3c-3.1-9.3-10.2-20.1-17.4-26.3c-5.3-4.7-18.1-11.2-25.8-13.2c-3-0.7-14.4-1.5-28-1.8l-23-0.6
			l-0.5-29.5c-0.3-16.2-0.9-30.1-1.3-30.8c-0.5-0.6-2.3-2-4-2.9c-2.9-1.5-15.7-1.6-160.7-1.1c-86.6,0.3-156.6,0.2-155.5-0.2
			c1.6-0.7,183-62.1,271-91.7c12.8-4.3,23-8.3,24.3-9.6c1.2-1.1,2.7-3.7,3.3-5.8c1.1-3.4,0.4-5.8-9.1-34
			C376.2,22.1,371,7.2,370.2,5.7c-1.7-3.4-6.1-5.8-10.5-5.7c-1.8,0-82.5,26.6-179.3,58.9C106.4,83.7,62.3,98.5,36.5,107.4
			c-25.8,8.9-33.5,11.9-34.4,13c-3.7,4.4-2.9,8.8,6.3,36.5l8.5,25.5v97.5c0,96.9,0.4,108.3,3.6,124.5c5.3,26.3,19.4,55.3,38.1,77.7
			c17.5,21,43.9,40.7,65.6,48.8c3.7,1.4,6.7,2.8,6.7,3.2c0,0.5-14,0.8-31,0.8c-25.5,0-31.6,0.3-34,1.5c-9.5,4.9-9.3,17.2,0.3,21.6
			c4.1,1.8,8.9,1.9,149.2,1.9c100.4,0,146.2-0.3,148.9-1.1c10.9-3,12.5-16.6,2.6-22.4c-3.3-1.9-5.1-2-34.2-2
			c-17,0-30.8-0.2-30.8-0.5c0-0.3,2.2-1.4,4.8-2.3c6.9-2.5,22.7-11.4,32.4-18.3c11.3-8.1,30.9-27.7,40.4-40.6
			c4.3-5.9,10.4-15.2,13.4-20.7c4.8-8.9,5.8-10.1,8.5-10.5c1.6-0.3,6.5-1,10.8-1.6c10.5-1.5,21.3-5.2,32.9-11.1
			c27.6-14.2,50-40.3,59.7-69.7c4.8-14.5,6.5-26.5,6.5-46.7C511.3,295.6,511.1,293.9,508.6,286.3z"/>
		<path class="st1" d="M264,47.6c1.9-1.1,42-14.5,43.9-14.6c0.9-0.1,13,8,27,18c14,9.9,26.1,18.6,26.9,19.4
			c1.1,1.1-2.2,2.5-20.5,8.4c-11.9,3.9-22.6,7.1-23.6,7.1c-2.2,0-3.9-1.1-33.2-21.9C268.8,52.8,263,48.2,264,47.6z"/>
		<path class="st1" d="M195.5,71.3c1.2,0.1,14.1,8.8,28.7,19.2c14.6,10.4,26.3,19.2,25.9,19.5c-0.4,0.4-11,4.1-23.7,8.3l-23,7.6
			l-5-3.4c-10.3-6.8-49-34.8-49.3-35.6C148.7,85.8,192.8,70.9,195.5,71.3z"/>
		<path class="st1" d="M36.7,124.7c0.8-0.8,43.7-15.5,45.5-15.7c0.5-0.1,2.3,0.9,4,2.1c14.6,10.1,50.8,36.1,51.2,36.8
			c0.5,0.8-43.6,16-46.7,16C87.9,163.9,35.6,125.8,36.7,124.7z"/>
		<path class="st1" d="M107.6,235.1l-9.9,12.8H72.3c-14.1,0-25.4-0.4-25.4-0.9c0-0.9,32.8-44.2,36.1-47.6c1.8-1.8,3.7-2.1,20.2-2.5
			c32.1-1,33.7-1,33.7-0.2C136.9,197.4,132.6,203,107.6,235.1z"/>
		<rect x="143.8" y="280" class="st1" width="48.2" height="206.5"/>
		<path class="st1" d="M168.1,247.4c-0.4-0.4,11.8-16.7,28-37.7c9.5-12.3,9.9-12.7,14.1-13.1c8.8-0.8,48.7-0.7,48.7,0.2
			c0,0.4-8.7,12.2-19.3,26.2l-19.3,25.4l-25.9-0.4C180.1,247.9,168.2,247.6,168.1,247.4z"/>
		<path class="st1" d="M248,487.9c-16.1-27.6-32.3-55.1-48.4-82.7h24.7c24.4,27.7,48.8,55.4,73.2,83.2
			C280.9,488.2,264.5,488,248,487.9z"/>
		<polygon class="st1" points="223.7,389.8 200.3,389.2 249.8,280 290.9,280 		"/>
		<path class="st1" d="M379.7,199.1c-5.6,7.6-24.9,32.9-30.8,40.5l-6.3,8.3h-25.9c-14.2,0-25.8-0.3-25.8-0.8
			c0-1.2,34.8-46.5,37.6-49c2.5-2.2,3-2.2,28.1-2.2h25.5L379.7,199.1z"/>
		<path class="st1" d="M472.8,347.4c-8.7,28.3-34.1,53.3-57.8,57.1l-4.4,0.7l0.7-4.4c2.2-13.6,2.5-22.9,2.6-69
			c0-27.8,0.3-50.9,0.7-51.2c1-1.1,28.9-0.8,36.6,0.3c6.9,1,12.5,3,16.6,6c4.2,3,7,7,8.5,12.1C479.3,309,477.6,331.9,472.8,347.4z"
			/>
	</g>
</g>
</svg>
