<svg xmlns="http://www.w3.org/2000/svg" viewBox="0 0 24 24"><path fill="#FFF" d="M8.172 9.603c.381-.631 1.084-.811 1.083-.811-.299 1.304-1.395 1.491-1.395 1.491s0-.16.313-.68zM23.148 0 13.434 8.952l9.715 13.347h-4.971l-4.495-6.212s.807 2.612.941 3.863c.169 1.549-.028 2.801-.52 4.051.821-5.504-3.859-9.229-3.773-11.4.107-2.684 2.027-4.556 3.44-5.696 0 0-.887-.86-2.268-.273-1.383.589-1.905 1.296-1.905 1.296s-.908-.055-1.865.609c-.956.66-2.456 3.231-3.583 4.773-1.064 1.459-1.624.992-1.687.939.039.136.529 1.632 2.5.229 0 0 .605.805-.507 1.867 0 0 1.563-.081 1.637-1.579 0 0 .351.568.437 2.752.037.956-.16 2.356-.553 3.063l-.013.02c-.593 1.057-1.727 1.701-2.94 1.701H.853V.001h3.98l.008 7.803 2.201-.005A4.173 4.173 0 009.837 6.713L17.225 0Z"/></svg>